<svg width="276" height="256" viewBox="0 0 276 256" fill="none" xmlns="http://www.w3.org/2000/svg">
<path fill-rule="evenodd" clip-rule="evenodd" d="M241.279 86.8687C258.061 121.152 234.217 160.425 203.908 187.78C177.594 211.529 141.624 217.62 109.545 205.763C65.7497 189.576 12.8375 165.734 20.5176 119.996C28.4098 72.9951 86.8657 56.1967 135.895 48.8395C178.062 42.5119 223.7 50.957 241.279 86.8687Z" fill="#0AA95E" stroke="black"/>
<path d="M63.5164 117H76.2844V115.704L70.6684 115.176H69.1324L63.5164 115.704V117ZM67.8364 117H72.1084C71.9644 114.024 71.9164 109.464 71.9164 106.056V86.28L72.1084 78.792L71.3884 78.36L63.7564 79.8V81.096L67.9804 81.336V106.056C67.9804 109.464 67.9324 114.024 67.8364 117ZM89.0606 117.72C93.0446 117.72 96.2606 115.416 98.7086 112.056H100.005L98.8526 110.232C96.5966 113.256 93.7646 115.032 90.7886 115.032C87.6686 115.032 85.9406 113.256 85.9406 108.12V98.76L86.1806 92.472L85.6526 91.896L78.1646 92.664V93.912L83.1566 94.632L82.1006 93.816L82.0046 108.12C81.9566 115.224 84.5006 117.72 89.0606 117.72ZM98.4686 117.48L105.861 117.048V115.704L102.213 115.32V98.76L102.405 92.472L101.925 91.896L94.4846 92.712V93.96L98.3726 94.392L98.2766 111.48V111.528L98.4686 117.48ZM108.948 117H120.708V115.704L115.716 115.176H114.18L108.948 115.704V117ZM112.884 117H117.156C117.06 114.696 117.012 109.32 117.012 106.056V97.656L116.676 92.088L116.052 91.656L108.66 93.624V94.824L112.884 95.064C113.028 97.464 113.076 99.864 113.076 103.128V106.056C113.076 109.32 113.028 114.696 112.884 117ZM125.268 117H137.028V115.704L132.036 115.176H130.452L125.268 115.704V117ZM129.204 117H133.428C133.332 114.696 133.236 109.416 133.236 106.056V100.584C133.236 94.104 130.74 91.56 126.564 91.56C123.204 91.56 119.748 93.24 116.244 97.56H115.764L116.196 99.144C119.652 95.304 122.772 94.152 124.932 94.152C127.716 94.152 129.348 95.784 129.348 100.488V106.056C129.348 109.416 129.3 114.696 129.204 117ZM151.962 117.72C156.57 117.72 159.45 115.848 161.562 112.536L160.794 111.912C158.682 114.216 156.186 115.32 153.354 115.32C147.93 115.32 144.186 111.384 144.186 104.472C144.186 97.416 147.93 93.096 152.826 93.096C154.65 93.096 156.282 93.576 158.25 94.872L155.85 92.952L157.05 97.176C157.338 98.856 158.106 99.528 159.45 99.528C160.506 99.528 161.178 99 161.514 97.848C160.41 94.056 156.906 91.56 152.586 91.56C146.01 91.56 140.058 96.408 140.058 104.952C140.058 112.968 144.954 117.72 151.962 117.72ZM163.982 117H175.742V115.704L170.75 115.176H169.214L163.982 115.704V117ZM167.918 117H172.19C172.046 114.696 171.998 109.32 171.998 106.056V97.848L171.95 97.272V86.28L172.094 78.792L171.374 78.36L163.838 79.8V81.096L168.062 81.336V106.056C168.062 109.32 168.014 114.696 167.918 117ZM180.398 117H192.11V115.704L187.07 115.176H185.534L180.398 115.704V117ZM184.238 117H188.558C188.414 114.696 188.366 109.416 188.366 106.056V100.632C188.366 94.104 185.822 91.56 181.598 91.56C178.142 91.56 174.734 93.336 171.374 97.512H170.318L171.23 99.144C174.686 95.256 177.71 94.152 179.966 94.152C182.702 94.152 184.43 95.784 184.43 100.488V106.056C184.43 109.416 184.382 114.696 184.238 117ZM48.6561 165H61.4241V163.704L55.8081 163.176H54.2721L48.6561 163.704V165ZM52.9761 165H57.2481C57.1041 162.024 57.0561 157.464 57.0561 154.056V134.28L57.2481 126.792L56.5281 126.36L48.8961 127.8V129.096L53.1201 129.336V154.056C53.1201 157.464 53.0721 162.024 52.9761 165ZM76.3513 165.72C82.6873 165.72 88.3513 161.304 88.3513 152.664C88.3513 144.024 82.5433 139.56 76.3513 139.56C70.1593 139.56 64.3993 144.024 64.3993 152.664C64.3993 161.304 69.9673 165.72 76.3513 165.72ZM76.3513 164.232C71.5993 164.232 68.6713 160.2 68.6713 152.712C68.6713 145.224 71.5993 141.096 76.3513 141.096C81.1033 141.096 84.0313 145.224 84.0313 152.712C84.0313 160.2 81.1033 164.232 76.3513 164.232ZM102.115 165.72C106.099 165.72 109.315 163.416 111.763 160.056H113.059L111.907 158.232C109.651 161.256 106.819 163.032 103.843 163.032C100.723 163.032 98.9953 161.256 98.9953 156.12V146.76L99.2353 140.472L98.7073 139.896L91.2193 140.664V141.912L96.2113 142.632L95.1553 141.816L95.0593 156.12C95.0113 163.224 97.5553 165.72 102.115 165.72ZM111.523 165.48L118.915 165.048V163.704L115.267 163.32V146.76L115.459 140.472L114.979 139.896L107.539 140.712V141.96L111.427 142.392L111.331 159.48V159.528L111.523 165.48ZM121.667 165H134.435V163.704L128.819 163.176H127.283L121.667 163.704V165ZM125.987 165H130.259C130.115 162.024 130.067 157.464 130.067 154.056V134.28L130.259 126.792L129.539 126.36L121.907 127.8V129.096L126.131 129.336V154.056C126.131 157.464 126.083 162.024 125.987 165ZM149.65 165.72C153.97 165.72 157.138 163.752 159.25 160.488L158.482 159.816C156.514 162.12 154.066 163.32 150.706 163.32C145.378 163.32 141.538 159.912 141.538 152.136C141.538 145.176 144.898 141.096 149.122 141.096C153.058 141.096 155.362 144.024 155.362 148.104C155.362 150.072 154.882 150.888 153.202 150.888H139.234V152.424H158.866C159.058 151.656 159.154 150.696 159.154 149.496C159.154 143.88 155.458 139.56 149.218 139.56C142.882 139.56 137.41 144.6 137.41 152.712C137.41 161.352 142.498 165.72 149.65 165.72ZM167.788 142.056H176.668V140.28H167.788V142.056ZM171.676 165.72C174.22 165.72 176.092 164.856 177.388 163.272L176.716 162.408C175.42 163.224 174.508 163.608 173.068 163.608C170.956 163.608 169.804 162.36 169.804 159.384V141L169.996 132.744H167.308L165.916 140.808L166.828 140.136L161.068 140.568V142.056H165.82V155.064C165.82 156.84 165.772 157.848 165.772 159.384C165.772 163.656 167.644 165.72 171.676 165.72ZM184.5 142.056H193.38V140.28H184.5V142.056ZM188.388 165.72C190.932 165.72 192.804 164.856 194.1 163.272L193.428 162.408C192.132 163.224 191.22 163.608 189.78 163.608C187.668 163.608 186.516 162.36 186.516 159.384V141L186.708 132.744H184.02L182.628 140.808L183.54 140.136L177.78 140.568V142.056H182.532V155.064C182.532 156.84 182.484 157.848 182.484 159.384C182.484 163.656 184.356 165.72 188.388 165.72ZM208.27 165.72C212.59 165.72 215.758 163.752 217.87 160.488L217.102 159.816C215.134 162.12 212.686 163.32 209.326 163.32C203.998 163.32 200.158 159.912 200.158 152.136C200.158 145.176 203.518 141.096 207.742 141.096C211.678 141.096 213.982 144.024 213.982 148.104C213.982 150.072 213.502 150.888 211.822 150.888H197.854V152.424H217.486C217.678 151.656 217.774 150.696 217.774 149.496C217.774 143.88 214.078 139.56 207.838 139.56C201.502 139.56 196.03 144.6 196.03 152.712C196.03 161.352 201.118 165.72 208.27 165.72Z" fill="black"/>
</svg>
